<svg width="32" height="32" viewBox="0 0 32 32" fill="none" xmlns="http://www.w3.org/2000/svg">
<path d="M10 8L12 4H20L22 8H10Z" stroke="#0B1B33" stroke-width="2" stroke-linejoin="round"/>
<path d="M27.3334 8H4.66669C3.56212 8 2.66669 8.89543 2.66669 10V26C2.66669 27.1046 3.56212 28 4.66669 28H27.3334C28.4379 28 29.3334 27.1046 29.3334 26V10C29.3334 8.89543 28.4379 8 27.3334 8Z" stroke="#0B1B33" stroke-width="2" stroke-linejoin="round"/>
<path d="M16 23.3333C18.9456 23.3333 21.3334 20.9455 21.3334 18C21.3334 15.0545 18.9456 12.6667 16 12.6667C13.0545 12.6667 10.6667 15.0545 10.6667 18C10.6667 20.9455 13.0545 23.3333 16 23.3333Z" stroke="#0B1B33" stroke-width="2" stroke-linejoin="round"/>
</svg>
