<svg width="469" height="129" viewBox="0 0 469 129" fill="none" xmlns="http://www.w3.org/2000/svg">
<path d="M2.45634 128C1.65577 128 1.00682 127.381 1.00682 126.618V124.957C0.98215 124.493 0.936219 121.955 2.63523 119.168C3.69862 117.423 5.22707 115.925 7.17819 114.716C9.54227 113.25 12.5366 112.209 16.078 111.622C16.1593 111.61 18.8846 111.255 21.6529 110.559C26.4515 109.352 26.8712 108.286 26.8741 108.276C26.9023 108.17 26.9434 108.068 26.9959 107.973C27.0353 107.773 27.1327 107.022 26.9467 105.01C26.4736 99.8991 23.6797 96.8769 21.4359 94.4499C20.7288 93.6851 20.061 92.9626 19.5468 92.2542C17.3264 89.1958 17.1204 85.7182 17.1127 85.5716C17.1109 84.1144 17.8367 83.4758 18.4771 82.9123L18.4773 82.9122C18.5602 82.7423 18.5091 82.4908 18.4745 82.3208C17.8789 79.2445 17.8408 74.7933 18.3445 71.9365C18.4339 70.1373 21.3638 66.0289 24.6118 63.5413C27.8597 61.0542 28.3931 61.0207 32.0947 59.7517C33.8554 59.1481 39.3048 59.4754 43.2526 61.0128C47.6042 62.7074 50.3987 65.6661 50.4993 65.7736C51.6154 67.0474 52.4186 68.5909 52.9186 70.3962C53.0748 70.9595 53.1752 71.4324 53.2336 71.8801C53.7068 74.5017 53.6279 77.1955 53.5268 78.9967C53.47 80.0077 53.3517 81.0689 53.1546 82.3363C53.101 82.6803 53.1599 82.7476 53.1821 82.773L53.1821 82.773C53.2404 82.8394 53.3116 82.9117 53.3871 82.9879L53.3891 82.9901C53.6885 83.293 54.0985 83.708 54.3165 84.374C54.4258 84.7068 54.4769 85.0658 54.4769 85.5026C54.4676 85.7182 54.2615 89.1958 52.0414 92.2542C51.5266 92.9632 50.8583 93.6861 50.1506 94.4516C47.9068 96.8785 45.1143 99.8991 44.6415 105.01C44.4552 107.022 44.5526 107.773 44.592 107.973C44.6446 108.068 44.6856 108.17 44.714 108.276C44.7167 108.286 45.1381 109.356 49.9585 110.565C52.7267 111.259 55.4287 111.611 55.4556 111.614C59.0997 112.257 62.1125 113.324 64.4808 114.798C66.4386 116.016 67.9641 117.511 69.0153 119.242C70.6823 121.987 70.6145 124.469 70.5812 124.967V126.618C70.5812 127.381 69.9321 128 69.1316 128L2.45634 128Z" fill="#22539C" stroke="#22539C" stroke-width="2" stroke-linejoin="round"/>
<path fill-rule="evenodd" clip-rule="evenodd" d="M80.5339 0.795898C107.478 0.795898 128.272 27.7094 128.272 59.4668C128.272 91.2244 107.478 118.139 80.5339 118.139V116.639H79.1979C78.6836 116.639 78.2043 116.375 77.9294 115.94C77.9291 115.94 77.9283 115.939 77.9274 115.938C77.9249 115.934 77.9198 115.925 77.9128 115.914C77.8984 115.892 77.875 115.856 77.8424 115.808C77.7767 115.71 77.673 115.561 77.5329 115.368C77.2523 114.982 76.822 114.421 76.2409 113.742C75.0771 112.384 73.3114 110.562 70.9245 108.739C70.8937 108.716 70.8635 108.691 70.8346 108.665C69.4704 107.444 67.1312 106.332 64.9499 105.271C63.9297 104.774 62.9034 104.267 62.1852 103.787C61.8417 103.558 61.4242 103.242 61.1315 102.835C60.9766 102.619 60.8034 102.304 60.7477 101.903C60.6876 101.468 60.7826 101.04 61.0055 100.674C62.2058 98.705 63.9128 97.0458 66.0387 95.7275C68.6099 94.1334 71.8022 93.0387 75.4831 92.4287C75.4946 92.4268 75.5067 92.4255 75.5182 92.4238C75.6074 92.4112 78.258 92.0645 80.9382 91.3906C83.2611 90.8067 84.4131 90.2828 84.9469 89.9658C85.0565 89.9008 85.1355 89.8458 85.1911 89.8047C85.2121 89.518 85.2321 88.82 85.1042 87.4355L85.0583 87.0127C84.5282 82.7045 82.1554 80.1024 79.985 77.7549C79.2942 77.0076 78.5607 76.2161 77.9841 75.4219C75.5065 72.0091 75.2779 68.1766 75.2653 67.9375C75.264 67.9121 75.2634 67.8858 75.2633 67.8604C75.2621 66.857 75.5191 66.0519 75.9382 65.3906C76.1421 65.0689 76.3762 64.7978 76.5964 64.5742C76.0278 61.3668 76 56.9678 76.5085 54.0225C76.5722 53.2962 76.8668 52.5266 77.2135 51.832C77.5988 51.0604 78.1244 50.227 78.736 49.3955C79.9564 47.7363 81.5977 45.9801 83.3503 44.6377L83.9401 44.1904C85.2568 43.2044 86.1836 42.6022 87.1882 42.123C88.292 41.5966 89.4787 41.2306 91.2594 40.6201C91.9097 40.3972 92.7557 40.2975 93.6217 40.2656C94.5192 40.2326 95.556 40.2687 96.6471 40.373C98.8186 40.5807 101.311 41.0702 103.448 41.9023C108.106 43.7166 111.084 46.8636 111.245 47.0352C111.256 47.0471 111.267 47.06 111.278 47.0723C112.56 48.5355 113.463 50.2868 114.015 52.2822L114.132 52.7295C114.234 53.1395 114.309 53.5232 114.361 53.9004L114.449 54.4258C114.856 57.0531 114.772 59.6553 114.675 61.3672V61.3682C114.621 62.3318 114.512 63.328 114.343 64.4678C114.674 64.8219 115.127 65.3843 115.392 66.1924C115.562 66.7078 115.628 67.2309 115.628 67.7891C115.628 67.8106 115.628 67.833 115.627 67.8545C115.613 68.1713 115.385 72.0065 112.906 75.4219V75.4229C112.329 76.2176 111.594 77.0089 110.903 77.7568C108.663 80.18 106.208 82.8728 105.786 87.4355C105.658 88.8197 105.677 89.5177 105.698 89.8047C105.754 89.8461 105.834 89.9019 105.945 89.9678C106.482 90.2861 107.64 90.8112 109.974 91.3965C111.16 91.6937 112.34 91.9262 113.292 92.0947C118.883 83.2068 122.272 71.9351 122.272 59.4668C122.272 29.7319 103.006 6.7959 80.5339 6.7959C60.5713 6.79607 43.1879 24.8105 39.5016 49.7832C39.2596 51.4222 37.7344 52.5544 36.0954 52.3125C34.4566 52.0704 33.3243 50.5461 33.5661 48.9072C37.5301 22.053 56.6362 0.796071 80.5339 0.795898Z" fill="#22539C"/>
<path d="M137.6 60H164.18V67.44H154.82V90H147.08V67.44H137.6V60ZM185.773 59.16C189.813 59.16 193.253 60.7 196.093 63.78C198.973 66.86 200.413 70.6 200.413 75C200.413 79.48 198.973 83.24 196.093 86.28C193.293 89.32 189.853 90.84 185.773 90.84C181.573 90.84 178.333 89.38 176.053 86.46V102H168.313V60H176.053V63.54C178.333 60.62 181.573 59.16 185.773 59.16ZM178.393 81.12C179.953 82.68 181.933 83.46 184.333 83.46C186.733 83.46 188.713 82.68 190.273 81.12C191.873 79.52 192.673 77.48 192.673 75C192.673 72.52 191.873 70.5 190.273 68.94C188.713 67.34 186.733 66.54 184.333 66.54C181.933 66.54 179.953 67.34 178.393 68.94C176.833 70.5 176.053 72.52 176.053 75C176.053 77.48 176.833 79.52 178.393 81.12ZM228.672 63.54V60H236.412V90H228.672V86.46C226.352 89.38 223.092 90.84 218.892 90.84C214.892 90.84 211.452 89.32 208.572 86.28C205.732 83.2 204.312 79.44 204.312 75C204.312 70.6 205.732 66.86 208.572 63.78C211.452 60.7 214.892 59.16 218.892 59.16C223.092 59.16 226.352 60.62 228.672 63.54ZM214.392 81.12C215.952 82.68 217.932 83.46 220.332 83.46C222.732 83.46 224.712 82.68 226.272 81.12C227.872 79.52 228.672 77.48 228.672 75C228.672 72.52 227.872 70.5 226.272 68.94C224.712 67.34 222.732 66.54 220.332 66.54C217.932 66.54 215.952 67.34 214.392 68.94C212.832 70.5 212.052 72.52 212.052 75C212.052 77.48 212.832 79.52 214.392 81.12ZM273.071 74.82L283.931 90H275.231L266.051 76.56V90H258.491V76.56L249.311 90H240.671L251.471 74.82L241.271 60H249.911L258.491 73.02V60H266.051V73.02L274.631 60H283.331L273.071 74.82ZM314.954 78.18H292.334C293.334 81.94 296.154 83.82 300.794 83.82C303.754 83.82 305.994 82.82 307.514 80.82L313.754 84.42C310.794 88.7 306.434 90.84 300.674 90.84C295.714 90.84 291.734 89.34 288.734 86.34C285.734 83.34 284.234 79.56 284.234 75C284.234 70.52 285.714 66.76 288.674 63.72C291.594 60.68 295.394 59.16 300.074 59.16C304.514 59.16 308.134 60.68 310.934 63.72C313.814 66.76 315.254 70.52 315.254 75C315.254 75.84 315.154 76.9 314.954 78.18ZM292.214 72.18H307.514C307.074 70.22 306.174 68.72 304.814 67.68C303.494 66.64 301.914 66.12 300.074 66.12C297.994 66.12 296.274 66.66 294.914 67.74C293.554 68.78 292.654 70.26 292.214 72.18ZM340.337 71.34V60H348.077V90H340.337V78.6H328.397V90H320.657V60H328.397V71.34H340.337ZM362.729 77.04L376.829 60H382.589V90H375.029V72.96L360.929 90H355.169V60H362.729V77.04ZM418.841 78.18H396.221C397.221 81.94 400.041 83.82 404.681 83.82C407.641 83.82 409.881 82.82 411.401 80.82L417.641 84.42C414.681 88.7 410.321 90.84 404.561 90.84C399.601 90.84 395.621 89.34 392.621 86.34C389.621 83.34 388.121 79.56 388.121 75C388.121 70.52 389.601 66.76 392.561 63.72C395.481 60.68 399.281 59.16 403.961 59.16C408.401 59.16 412.021 60.68 414.821 63.72C417.701 66.76 419.141 70.52 419.141 75C419.141 75.84 419.041 76.9 418.841 78.18ZM396.101 72.18H411.401C410.961 70.22 410.061 68.72 408.701 67.68C407.381 66.64 405.801 66.12 403.961 66.12C401.881 66.12 400.161 66.66 398.801 67.74C397.441 68.78 396.541 70.26 396.101 72.18Z" fill="#22539C"/>
</svg>
