<svg width="570" height="129" viewBox="0 0 570 129" fill="none" xmlns="http://www.w3.org/2000/svg">
<path d="M2.45634 128C1.65577 128 1.00682 127.381 1.00682 126.618V124.957C0.98215 124.493 0.936219 121.955 2.63523 119.168C3.69862 117.423 5.22707 115.925 7.17819 114.716C9.54227 113.25 12.5366 112.209 16.078 111.622C16.1593 111.61 18.8846 111.255 21.6529 110.559C26.4515 109.352 26.8712 108.286 26.8741 108.276C26.9023 108.17 26.9434 108.068 26.9959 107.973C27.0353 107.773 27.1327 107.022 26.9467 105.01C26.4736 99.8991 23.6797 96.8769 21.4359 94.4499C20.7288 93.6851 20.061 92.9626 19.5468 92.2542C17.3264 89.1958 17.1204 85.7182 17.1127 85.5716C17.1109 84.1144 17.8367 83.4758 18.4771 82.9123L18.4773 82.9122C18.5602 82.7423 18.5091 82.4908 18.4745 82.3208C17.8789 79.2445 17.8408 74.7933 18.3445 71.9365C18.4339 70.1373 21.3638 66.0289 24.6118 63.5413C27.8597 61.0542 28.3931 61.0207 32.0947 59.7517C33.8554 59.1481 39.3048 59.4754 43.2526 61.0128C47.6042 62.7074 50.3987 65.6661 50.4993 65.7736C51.6154 67.0474 52.4186 68.5909 52.9186 70.3962C53.0748 70.9595 53.1752 71.4324 53.2336 71.8801C53.7068 74.5017 53.6279 77.1955 53.5268 78.9967C53.47 80.0077 53.3517 81.0689 53.1546 82.3363C53.101 82.6803 53.1599 82.7476 53.1821 82.773L53.1821 82.773C53.2404 82.8394 53.3116 82.9117 53.3871 82.9879L53.3891 82.9901C53.6885 83.293 54.0985 83.708 54.3165 84.374C54.4258 84.7068 54.4769 85.0658 54.4769 85.5026C54.4676 85.7182 54.2615 89.1958 52.0414 92.2542C51.5266 92.9632 50.8583 93.6861 50.1506 94.4516C47.9068 96.8785 45.1143 99.8991 44.6415 105.01C44.4552 107.022 44.5526 107.773 44.592 107.973C44.6446 108.068 44.6856 108.17 44.714 108.276C44.7167 108.286 45.1381 109.356 49.9585 110.565C52.7267 111.259 55.4287 111.611 55.4556 111.614C59.0997 112.257 62.1125 113.324 64.4808 114.798C66.4386 116.016 67.9641 117.511 69.0153 119.242C70.6823 121.987 70.6145 124.469 70.5812 124.967V126.618C70.5812 127.381 69.9321 128 69.1316 128L2.45634 128Z" fill="#22539C" stroke="#22539C" stroke-width="2" stroke-linejoin="round"/>
<path fill-rule="evenodd" clip-rule="evenodd" d="M80.5336 0.795898C107.478 0.795898 128.272 27.7094 128.272 59.4668C128.272 91.2244 107.478 118.139 80.5336 118.139V116.639H79.1977C78.6833 116.639 78.204 116.375 77.9291 115.94C77.9288 115.94 77.9281 115.939 77.9272 115.938C77.9246 115.934 77.9196 115.925 77.9125 115.914C77.8981 115.892 77.8748 115.856 77.8422 115.808C77.7764 115.71 77.6728 115.561 77.5326 115.368C77.252 114.982 76.8218 114.421 76.2406 113.742C75.0768 112.384 73.3113 110.562 70.9242 108.739C70.8934 108.716 70.8633 108.691 70.8344 108.665C69.4701 107.443 67.131 106.332 64.9496 105.271C63.9293 104.774 62.9031 104.267 62.185 103.787C61.8414 103.558 61.4239 103.242 61.1313 102.835C60.9764 102.619 60.8031 102.304 60.7475 101.903C60.6873 101.468 60.7824 101.04 61.0053 100.674C62.2055 98.705 63.9126 97.0458 66.0385 95.7275C68.6096 94.1334 71.802 93.0388 75.4828 92.4287C75.4943 92.4268 75.5065 92.4255 75.518 92.4238C75.6058 92.4114 78.2571 92.0646 80.9379 91.3906C83.2606 90.8067 84.4128 90.2828 84.9467 89.9658C85.0561 89.9008 85.1352 89.8458 85.1908 89.8047C85.2119 89.518 85.2319 88.8201 85.1039 87.4355L85.058 87.0127C84.5279 82.7044 82.1552 80.1024 79.9848 77.7549C79.2939 77.0075 78.5604 76.2162 77.9838 75.4219C75.5062 72.009 75.2776 68.1764 75.265 67.9375C75.2637 67.9121 75.2631 67.8858 75.2631 67.8604C75.2618 66.857 75.5189 66.0518 75.9379 65.3906C76.1418 65.0689 76.376 64.7978 76.5961 64.5742C76.0276 61.3669 75.9997 56.9678 76.5082 54.0225C76.5719 53.2962 76.8666 52.5266 77.2133 51.832C77.5985 51.0604 78.1242 50.227 78.7357 49.3955C79.9561 47.7364 81.5975 45.9801 83.35 44.6377L83.9398 44.1904C85.2565 43.2044 86.1834 42.6021 87.1879 42.123C88.2917 41.5966 89.4786 41.2306 91.2592 40.6201C91.9094 40.3973 92.7555 40.2975 93.6215 40.2656C94.519 40.2326 95.5557 40.2687 96.6469 40.373C98.8184 40.5807 101.311 41.0702 103.448 41.9023C108.106 43.7166 111.084 46.8636 111.245 47.0352C111.256 47.0471 111.267 47.0599 111.278 47.0723C112.56 48.5355 113.462 50.2867 114.015 52.2822L114.132 52.7295C114.234 53.1395 114.309 53.5232 114.361 53.9004L114.449 54.4258C114.855 57.0531 114.771 59.6553 114.675 61.3672V61.3682C114.621 62.3318 114.512 63.3281 114.343 64.4678C114.673 64.8219 115.127 65.3842 115.392 66.1924C115.561 66.7078 115.627 67.2309 115.627 67.7891C115.627 67.8106 115.627 67.833 115.626 67.8545C115.613 68.1714 115.385 72.0066 112.906 75.4219V75.4229C112.329 76.2175 111.594 77.009 110.903 77.7568C108.662 80.18 106.208 82.8729 105.786 87.4355C105.657 88.8197 105.677 89.5177 105.698 89.8047C105.754 89.8461 105.834 89.9019 105.945 89.9678C106.482 90.286 107.64 90.8112 109.974 91.3965C111.16 91.6938 112.34 91.9262 113.291 92.0947C118.882 83.2068 122.272 71.9352 122.272 59.4668C122.272 29.7319 103.006 6.7959 80.5336 6.7959C60.5711 6.79625 43.1876 24.8106 39.5014 49.7832C39.2593 51.4222 37.7342 52.5544 36.0951 52.3125C34.4565 52.0702 33.3241 50.5459 33.5658 48.9072C37.5298 22.0531 56.636 0.796241 80.5336 0.795898Z" fill="#22539C"/>
<path d="M137.6 60H164.18V67.44H154.82V90H147.08V67.44H137.6V60ZM185.773 59.16C189.813 59.16 193.253 60.7 196.093 63.78C198.973 66.86 200.413 70.6 200.413 75C200.413 79.48 198.973 83.24 196.093 86.28C193.293 89.32 189.853 90.84 185.773 90.84C181.573 90.84 178.333 89.38 176.053 86.46V102H168.313V60H176.053V63.54C178.333 60.62 181.573 59.16 185.773 59.16ZM178.393 81.12C179.953 82.68 181.933 83.46 184.333 83.46C186.733 83.46 188.713 82.68 190.273 81.12C191.873 79.52 192.673 77.48 192.673 75C192.673 72.52 191.873 70.5 190.273 68.94C188.713 67.34 186.733 66.54 184.333 66.54C181.933 66.54 179.953 67.34 178.393 68.94C176.833 70.5 176.053 72.52 176.053 75C176.053 77.48 176.833 79.52 178.393 81.12ZM228.672 63.54V60H236.412V90H228.672V86.46C226.352 89.38 223.092 90.84 218.892 90.84C214.892 90.84 211.452 89.32 208.572 86.28C205.732 83.2 204.312 79.44 204.312 75C204.312 70.6 205.732 66.86 208.572 63.78C211.452 60.7 214.892 59.16 218.892 59.16C223.092 59.16 226.352 60.62 228.672 63.54ZM214.392 81.12C215.952 82.68 217.932 83.46 220.332 83.46C222.732 83.46 224.712 82.68 226.272 81.12C227.872 79.52 228.672 77.48 228.672 75C228.672 72.52 227.872 70.5 226.272 68.94C224.712 67.34 222.732 66.54 220.332 66.54C217.932 66.54 215.952 67.34 214.392 68.94C212.832 70.5 212.052 72.52 212.052 75C212.052 77.48 212.832 79.52 214.392 81.12ZM273.071 74.82L283.931 90H275.231L266.051 76.56V90H258.491V76.56L249.311 90H240.671L251.471 74.82L241.271 60H249.911L258.491 73.02V60H266.051V73.02L274.631 60H283.331L273.071 74.82ZM314.954 78.18H292.334C293.334 81.94 296.154 83.82 300.794 83.82C303.754 83.82 305.994 82.82 307.514 80.82L313.754 84.42C310.794 88.7 306.434 90.84 300.674 90.84C295.714 90.84 291.734 89.34 288.734 86.34C285.734 83.34 284.234 79.56 284.234 75C284.234 70.52 285.714 66.76 288.674 63.72C291.594 60.68 295.394 59.16 300.074 59.16C304.514 59.16 308.134 60.68 310.934 63.72C313.814 66.76 315.254 70.52 315.254 75C315.254 75.84 315.154 76.9 314.954 78.18ZM292.214 72.18H307.514C307.074 70.22 306.174 68.72 304.814 67.68C303.494 66.64 301.914 66.12 300.074 66.12C297.994 66.12 296.274 66.66 294.914 67.74C293.554 68.78 292.654 70.26 292.214 72.18ZM340.337 71.34V60H348.077V90H340.337V78.6H328.397V90H320.657V60H328.397V71.34H340.337ZM362.729 77.04L376.829 60H382.589V90H375.029V72.96L360.929 90H355.169V60H362.729V77.04ZM418.841 78.18H396.221C397.221 81.94 400.041 83.82 404.681 83.82C407.641 83.82 409.881 82.82 411.401 80.82L417.641 84.42C414.681 88.7 410.321 90.84 404.561 90.84C399.601 90.84 395.621 89.34 392.621 86.34C389.621 83.34 388.121 79.56 388.121 75C388.121 70.52 389.601 66.76 392.561 63.72C395.481 60.68 399.281 59.16 403.961 59.16C408.401 59.16 412.021 60.68 414.821 63.72C417.701 66.76 419.141 70.52 419.141 75C419.141 75.84 419.041 76.9 418.841 78.18ZM396.101 72.18H411.401C410.961 70.22 410.061 68.72 408.701 67.68C407.381 66.64 405.801 66.12 403.961 66.12C401.881 66.12 400.161 66.66 398.801 67.74C397.441 68.78 396.541 70.26 396.101 72.18Z" fill="#22539C"/>
<line x1="434" y1="1.31134e-07" x2="434" y2="128" stroke="#22539C" stroke-width="6"/>
<path d="M454.76 40.86C455.853 41.26 456.4 42.04 456.4 43.2C456.4 44.0267 456.12 44.7 455.56 45.22C455.013 45.74 454.247 46 453.26 46H448.4V36H452.86C453.82 36 454.567 36.2467 455.1 36.74C455.647 37.2333 455.92 37.88 455.92 38.68C455.92 39.68 455.533 40.4067 454.76 40.86ZM452.86 37.28H449.72V40.32H452.86C454.02 40.32 454.6 39.8 454.6 38.76C454.6 38.2933 454.447 37.9333 454.14 37.68C453.847 37.4133 453.42 37.28 452.86 37.28ZM449.72 44.72H453.26C453.847 44.72 454.293 44.58 454.6 44.3C454.92 44.02 455.08 43.6267 455.08 43.12C455.08 42.64 454.92 42.2667 454.6 42C454.293 41.7333 453.847 41.6 453.26 41.6H449.72V44.72ZM459.72 43.7L465.68 36H466.8V46H465.48V38.3L459.52 46H458.4V36H459.72V43.7ZM474.951 35.76C476.378 35.76 477.591 36.2667 478.591 37.28C479.605 38.2933 480.111 39.5333 480.111 41C480.111 42.4667 479.605 43.7067 478.591 44.72C477.591 45.7333 476.378 46.24 474.951 46.24C473.178 46.24 471.831 45.5067 470.911 44.04V50H469.591V36H470.911V37.96C471.831 36.4933 473.178 35.76 474.951 35.76ZM472.051 43.82C472.811 44.58 473.745 44.96 474.851 44.96C475.958 44.96 476.891 44.58 477.651 43.82C478.411 43.0333 478.791 42.0933 478.791 41C478.791 39.8933 478.411 38.96 477.651 38.2C476.891 37.4267 475.958 37.04 474.851 37.04C473.745 37.04 472.811 37.4267 472.051 38.2C471.291 38.96 470.911 39.8933 470.911 41C470.911 42.0933 471.291 43.0333 472.051 43.82ZM485.876 44.38L489.116 36H490.516L486.236 46.92C485.836 47.9333 485.276 48.7133 484.556 49.26C483.849 49.82 483.062 50.0667 482.196 50V48.76C483.396 48.9067 484.309 48.2133 484.936 46.68L485.196 46.06L480.716 36H482.116L485.876 44.38ZM490.911 36H499.311V37.28H495.771V46H494.451V37.28H490.911V36ZM509.129 37.96V36H510.449V46H509.129V44.04C508.209 45.5067 506.862 46.24 505.089 46.24C503.662 46.24 502.442 45.7333 501.429 44.72C500.429 43.7067 499.929 42.4667 499.929 41C499.929 39.5333 500.429 38.2933 501.429 37.28C502.442 36.2667 503.662 35.76 505.089 35.76C506.862 35.76 508.209 36.4933 509.129 37.96ZM502.389 43.82C503.149 44.58 504.082 44.96 505.189 44.96C506.296 44.96 507.229 44.58 507.989 43.82C508.749 43.0333 509.129 42.0933 509.129 41C509.129 39.8933 508.749 38.96 507.989 38.2C507.229 37.4267 506.296 37.04 505.189 37.04C504.082 37.04 503.149 37.4267 502.389 38.2C501.629 38.96 501.249 39.8933 501.249 41C501.249 42.0933 501.629 43.0333 502.389 43.82ZM514.284 36H521.444V46H520.124V37.28H515.604V41.74C515.604 43.4067 515.284 44.5533 514.644 45.18C514.017 45.8067 513.15 46.08 512.044 46V44.76C512.817 44.84 513.384 44.6533 513.744 44.2C514.104 43.7467 514.284 42.9267 514.284 41.74V36ZM525.56 39.8H528.3C529.22 39.8 530.007 40.0933 530.66 40.68C531.313 41.2533 531.64 41.9933 531.64 42.9C531.64 43.82 531.313 44.5667 530.66 45.14C530.033 45.7133 529.247 46 528.3 46H524.24V36H525.56V39.8ZM525.56 44.72H528.3C528.873 44.72 529.353 44.5533 529.74 44.22C530.127 43.8733 530.32 43.4333 530.32 42.9C530.32 42.3667 530.127 41.9333 529.74 41.6C529.353 41.2533 528.873 41.08 528.3 41.08H525.56V44.72ZM540.714 40.36V36H542.034V46H540.714V41.64H534.954V46H533.634V36H534.954V40.36H540.714ZM546.146 39.8H548.886C549.806 39.8 550.592 40.0933 551.246 40.68C551.899 41.2533 552.226 41.9933 552.226 42.9C552.226 43.82 551.899 44.5667 551.246 45.14C550.619 45.7133 549.832 46 548.886 46H544.826V36H546.146V39.8ZM553.626 46V36H554.946V46H553.626ZM546.146 44.72H548.886C549.459 44.72 549.939 44.5533 550.326 44.22C550.712 43.8733 550.906 43.4333 550.906 42.9C550.906 42.3667 550.712 41.9333 550.326 41.6C549.939 41.2533 549.459 41.08 548.886 41.08H546.146V44.72ZM564.555 34.4H559.355V33.24H564.555V34.4ZM559.075 43.7L565.035 36H566.155V46H564.835V38.3L558.875 46H557.755V36H559.075V43.7ZM456.6 60V68.72H458.2V72.68H456.88V70H448.4V60H449.72V68.72H455.28V60H456.6ZM461.517 67.7L467.477 60H468.597V70H467.277V62.3L461.317 70H460.197V60H461.517V67.7ZM477.348 70.22V74H476.028V70.22C474.442 70.0733 473.175 69.52 472.228 68.56C471.268 67.5733 470.788 66.3867 470.788 65C470.788 63.6133 471.268 62.4267 472.228 61.44C473.175 60.48 474.442 59.9267 476.028 59.78V56H477.348V59.78C478.935 59.9267 480.202 60.48 481.148 61.44C482.108 62.4267 482.588 63.6133 482.588 65C482.588 66.3867 482.108 67.5733 481.148 68.56C480.202 69.52 478.935 70.0733 477.348 70.22ZM476.028 68.92V61.08C474.842 61.2 473.888 61.62 473.168 62.34C472.462 63.06 472.108 63.9467 472.108 65C472.108 66.0533 472.462 66.94 473.168 67.66C473.888 68.38 474.842 68.8 476.028 68.92ZM477.348 61.08V68.92C478.535 68.8 479.482 68.38 480.188 67.66C480.908 66.94 481.268 66.0533 481.268 65C481.268 63.9467 480.908 63.06 480.188 62.34C479.482 61.62 478.535 61.2 477.348 61.08ZM490.147 59.76C491.573 59.76 492.787 60.2667 493.787 61.28C494.8 62.2933 495.307 63.5333 495.307 65C495.307 66.4667 494.8 67.7067 493.787 68.72C492.787 69.7333 491.573 70.24 490.147 70.24C488.373 70.24 487.027 69.5067 486.107 68.04V74H484.787V60H486.107V61.96C487.027 60.4933 488.373 59.76 490.147 59.76ZM487.247 67.82C488.007 68.58 488.94 68.96 490.047 68.96C491.153 68.96 492.087 68.58 492.847 67.82C493.607 67.0333 493.987 66.0933 493.987 65C493.987 63.8933 493.607 62.96 492.847 62.2C492.087 61.4267 491.153 61.04 490.047 61.04C488.94 61.04 488.007 61.4267 487.247 62.2C486.487 62.96 486.107 63.8933 486.107 65C486.107 66.0933 486.487 67.0333 487.247 67.82ZM505.882 68.74C504.855 69.74 503.615 70.24 502.162 70.24C500.682 70.24 499.435 69.74 498.422 68.74C497.408 67.7267 496.902 66.48 496.902 65C496.902 63.52 497.408 62.28 498.422 61.28C499.435 60.2667 500.682 59.76 502.162 59.76C503.628 59.76 504.868 60.2667 505.882 61.28C506.908 62.28 507.422 63.52 507.422 65C507.422 66.4667 506.908 67.7133 505.882 68.74ZM499.362 67.82C500.122 68.58 501.055 68.96 502.162 68.96C503.268 68.96 504.202 68.58 504.962 67.82C505.722 67.0333 506.102 66.0933 506.102 65C506.102 63.8933 505.722 62.96 504.962 62.2C504.202 61.4267 503.268 61.04 502.162 61.04C501.055 61.04 500.122 61.4267 499.362 62.2C498.602 62.96 498.222 63.8933 498.222 65C498.222 66.0933 498.602 67.0333 499.362 67.82ZM515.99 64.86C517.084 65.26 517.63 66.04 517.63 67.2C517.63 68.0267 517.35 68.7 516.79 69.22C516.244 69.74 515.477 70 514.49 70H509.63V60H514.09C515.05 60 515.797 60.2467 516.33 60.74C516.877 61.2333 517.15 61.88 517.15 62.68C517.15 63.68 516.764 64.4067 515.99 64.86ZM514.09 61.28H510.95V64.32H514.09C515.25 64.32 515.83 63.8 515.83 62.76C515.83 62.2933 515.677 61.9333 515.37 61.68C515.077 61.4133 514.65 61.28 514.09 61.28ZM510.95 68.72H514.49C515.077 68.72 515.524 68.58 515.83 68.3C516.15 68.02 516.31 67.6267 516.31 67.12C516.31 66.64 516.15 66.2667 515.83 66C515.524 65.7333 515.077 65.6 514.49 65.6H510.95V68.72ZM528.01 68.74C526.984 69.74 525.744 70.24 524.29 70.24C522.81 70.24 521.564 69.74 520.55 68.74C519.537 67.7267 519.03 66.48 519.03 65C519.03 63.52 519.537 62.28 520.55 61.28C521.564 60.2667 522.81 59.76 524.29 59.76C525.757 59.76 526.997 60.2667 528.01 61.28C529.037 62.28 529.55 63.52 529.55 65C529.55 66.4667 529.037 67.7133 528.01 68.74ZM521.49 67.82C522.25 68.58 523.184 68.96 524.29 68.96C525.397 68.96 526.33 68.58 527.09 67.82C527.85 67.0333 528.23 66.0933 528.23 65C528.23 63.8933 527.85 62.96 527.09 62.2C526.33 61.4267 525.397 61.04 524.29 61.04C523.184 61.04 522.25 61.4267 521.49 62.2C520.73 62.96 520.35 63.8933 520.35 65C520.35 66.0933 520.73 67.0333 521.49 67.82ZM538.559 58.4H533.359V57.24H538.559V58.4ZM533.079 67.7L539.039 60H540.159V70H538.839V62.3L532.879 70H531.759V60H533.079V67.7ZM457 85.96V84H458.32V94H457V92.04C456.08 93.5067 454.733 94.24 452.96 94.24C451.533 94.24 450.313 93.7333 449.3 92.72C448.3 91.7067 447.8 90.4667 447.8 89C447.8 87.5333 448.3 86.2933 449.3 85.28C450.313 84.2667 451.533 83.76 452.96 83.76C454.733 83.76 456.08 84.4933 457 85.96ZM450.26 91.82C451.02 92.58 451.953 92.96 453.06 92.96C454.167 92.96 455.1 92.58 455.86 91.82C456.62 91.0333 457 90.0933 457 89C457 87.8933 456.62 86.96 455.86 86.2C455.1 85.4267 454.167 85.04 453.06 85.04C451.953 85.04 451.02 85.4267 450.26 86.2C449.5 86.96 449.12 87.8933 449.12 89C449.12 90.0933 449.5 91.0333 450.26 91.82ZM467.475 88.86C468.568 89.26 469.115 90.04 469.115 91.2C469.115 92.0267 468.835 92.7 468.275 93.22C467.728 93.74 466.962 94 465.975 94H461.115V84H465.575C466.535 84 467.282 84.2467 467.815 84.74C468.362 85.2333 468.635 85.88 468.635 86.68C468.635 87.68 468.248 88.4067 467.475 88.86ZM465.575 85.28H462.435V88.32H465.575C466.735 88.32 467.315 87.8 467.315 86.76C467.315 86.2933 467.162 85.9333 466.855 85.68C466.562 85.4133 466.135 85.28 465.575 85.28ZM462.435 92.72H465.975C466.562 92.72 467.008 92.58 467.315 92.3C467.635 92.02 467.795 91.6267 467.795 91.12C467.795 90.64 467.635 90.2667 467.315 90C467.008 89.7333 466.562 89.6 465.975 89.6H462.435V92.72ZM479.715 85.96V84H481.035V94H479.715V92.04C478.795 93.5067 477.448 94.24 475.675 94.24C474.248 94.24 473.028 93.7333 472.015 92.72C471.015 91.7067 470.515 90.4667 470.515 89C470.515 87.5333 471.015 86.2933 472.015 85.28C473.028 84.2667 474.248 83.76 475.675 83.76C477.448 83.76 478.795 84.4933 479.715 85.96ZM472.975 91.82C473.735 92.58 474.668 92.96 475.775 92.96C476.882 92.96 477.815 92.58 478.575 91.82C479.335 91.0333 479.715 90.0933 479.715 89C479.715 87.8933 479.335 86.96 478.575 86.2C477.815 85.4267 476.882 85.04 475.775 85.04C474.668 85.04 473.735 85.4267 472.975 86.2C472.215 86.96 471.835 87.8933 471.835 89C471.835 90.0933 472.215 91.0333 472.975 91.82ZM482.63 84H491.03V85.28H487.49V94H486.17V85.28H482.63V84ZM500.848 85.96V84H502.168V94H500.848V92.04C499.928 93.5067 498.581 94.24 496.808 94.24C495.381 94.24 494.161 93.7333 493.148 92.72C492.148 91.7067 491.648 90.4667 491.648 89C491.648 87.5333 492.148 86.2933 493.148 85.28C494.161 84.2667 495.381 83.76 496.808 83.76C498.581 83.76 499.928 84.4933 500.848 85.96ZM494.108 91.82C494.868 92.58 495.801 92.96 496.908 92.96C498.014 92.96 498.948 92.58 499.708 91.82C500.468 91.0333 500.848 90.0933 500.848 89C500.848 87.8933 500.468 86.96 499.708 86.2C498.948 85.4267 498.014 85.04 496.908 85.04C495.801 85.04 494.868 85.4267 494.108 86.2C493.348 86.96 492.968 87.8933 492.968 89C492.968 90.0933 493.348 91.0333 494.108 91.82ZM510.323 83.76C511.749 83.76 512.963 84.2667 513.963 85.28C514.976 86.2933 515.483 87.5333 515.483 89C515.483 90.4667 514.976 91.7067 513.963 92.72C512.963 93.7333 511.749 94.24 510.323 94.24C508.549 94.24 507.203 93.5067 506.283 92.04V98H504.963V84H506.283V85.96C507.203 84.4933 508.549 83.76 510.323 83.76ZM507.423 91.82C508.183 92.58 509.116 92.96 510.223 92.96C511.329 92.96 512.263 92.58 513.023 91.82C513.783 91.0333 514.163 90.0933 514.163 89C514.163 87.8933 513.783 86.96 513.023 86.2C512.263 85.4267 511.329 85.04 510.223 85.04C509.116 85.04 508.183 85.4267 507.423 86.2C506.663 86.96 506.283 87.8933 506.283 89C506.283 90.0933 506.663 91.0333 507.423 91.82Z" fill="#22539C"/>
</svg>
