<svg width="297" height="190" viewBox="0 0 297 190" fill="none" xmlns="http://www.w3.org/2000/svg">
<path fill-rule="evenodd" clip-rule="evenodd" d="M92.2301 108.912L290.238 109.087V113.083L89.918 113.302L92.2301 108.912Z" fill="#004C9C"/>
<path fill-rule="evenodd" clip-rule="evenodd" d="M85.6193 121.453L282.431 121.461V125.088L83.7441 125.02L85.6193 121.453Z" fill="#004C9C"/>
<path fill-rule="evenodd" clip-rule="evenodd" d="M0 125.02L36.7675 96.8312L113.282 0L71.1473 96.7675L98.6385 96.8312L83.7925 125.02H62.7887L40.8633 178.623L26.649 125.024L0 125.02Z" fill="#004C9C"/>
<path fill-rule="evenodd" clip-rule="evenodd" d="M237.29 49.7139L255.532 49.7218L246.844 72.4673L273.795 49.7099L296.999 49.686L265.361 77.3345L275.702 106.422H252.545L242.855 83.1282L233.651 106.339L214.729 106.323L237.29 49.7139Z" fill="#004C9C"/>
<path fill-rule="evenodd" clip-rule="evenodd" d="M169.277 49.6821L223.866 49.6941L201.857 106.339L183.063 106.391L199.259 64.9677H182.026L166.202 106.343L147.221 106.331L169.277 49.6821Z" fill="#004C9C"/>
<path fill-rule="evenodd" clip-rule="evenodd" d="M156.341 51.1097L148.372 71.0994C142.663 64.4667 132.052 65.6159 124.115 71.7714C118.724 75.9547 118.132 82.6352 121.29 86.0152C123.241 88.0989 127.36 89.1248 133.876 87.7251C136.672 87.1246 139.421 85.7686 143.648 84.0548L136.064 103.166C132.767 105.436 113.929 110.081 104.799 103.734C100.735 100.911 98.7369 95.3162 98.717 91.3476C98.6813 83.3748 102.892 73.1075 108.057 66.3237C121.381 48.8272 138.837 45.2165 156.341 51.1097Z" fill="#004C9C"/>
<path d="M110.728 144.045L112.877 144.729C112.547 145.93 111.999 146.82 111.232 147.401C110.465 147.981 109.492 148.276 108.312 148.276C106.854 148.276 105.655 147.779 104.717 146.781C103.779 145.782 103.307 144.419 103.307 142.689C103.307 140.86 103.779 139.436 104.721 138.426C105.662 137.416 106.906 136.907 108.443 136.907C109.786 136.907 110.879 137.305 111.717 138.1C112.217 138.569 112.591 139.245 112.841 140.124L110.644 140.649C110.513 140.08 110.243 139.631 109.83 139.301C109.417 138.971 108.916 138.804 108.328 138.804C107.514 138.804 106.854 139.098 106.346 139.683C105.837 140.267 105.587 141.214 105.587 142.526C105.587 143.918 105.837 144.908 106.338 145.496C106.838 146.085 107.486 146.383 108.284 146.383C108.872 146.383 109.381 146.196 109.806 145.818C110.231 145.441 110.541 144.848 110.728 144.045Z" fill="#004C9C"/>
<path d="M114.99 140.119H117.231L119.134 145.774L120.993 140.119H123.174L120.365 147.786L119.865 149.174C119.678 149.639 119.503 149.993 119.336 150.239C119.17 150.486 118.975 150.685 118.76 150.836C118.542 150.987 118.276 151.106 117.958 151.194C117.64 151.277 117.282 151.321 116.881 151.321C116.476 151.321 116.079 151.277 115.689 151.194L115.503 149.543C115.832 149.607 116.13 149.643 116.393 149.643C116.881 149.643 117.243 149.5 117.477 149.213C117.712 148.927 117.89 148.561 118.017 148.116L114.99 140.119Z" fill="#004C9C"/>
<path d="M125.482 140.119H127.445V141.288C127.699 140.887 128.045 140.564 128.478 140.314C128.911 140.063 129.396 139.94 129.924 139.94C130.85 139.94 131.632 140.302 132.276 141.026C132.919 141.749 133.241 142.759 133.241 144.056C133.241 145.384 132.915 146.418 132.268 147.157C131.62 147.893 130.834 148.263 129.908 148.263C129.467 148.263 129.07 148.175 128.712 148C128.355 147.826 127.977 147.523 127.584 147.102V151.114H125.479V140.119H125.482ZM127.564 143.968C127.564 144.863 127.743 145.523 128.097 145.953C128.45 146.382 128.883 146.593 129.392 146.593C129.88 146.593 130.289 146.398 130.611 146.004C130.933 145.611 131.1 144.966 131.1 144.072C131.1 143.237 130.933 142.616 130.599 142.211C130.266 141.805 129.848 141.602 129.356 141.602C128.839 141.602 128.414 141.801 128.073 142.199C127.735 142.6 127.564 143.189 127.564 143.968Z" fill="#004C9C"/>
<path d="M136.059 140.119H141.43V141.821H138.164V148.084H136.059V140.119V140.119Z" fill="#004C9C"/>
<path d="M142.756 140.119H144.996L146.899 145.774L148.759 140.119H150.94L148.131 147.786L147.63 149.174C147.444 149.639 147.269 149.993 147.102 150.239C146.935 150.486 146.74 150.685 146.526 150.836C146.307 150.987 146.041 151.106 145.723 151.194C145.406 151.277 145.048 151.321 144.647 151.321C144.242 151.321 143.844 151.277 143.455 151.194L143.268 149.543C143.598 149.607 143.896 149.643 144.158 149.643C144.647 149.643 145.008 149.5 145.243 149.213C145.477 148.927 145.656 148.561 145.783 148.116L142.756 140.119Z" fill="#004C9C"/>
<path d="M152.75 140.119H159.949V141.821H157.402V148.084H155.297V141.821H152.75V140.119V140.119Z" fill="#004C9C"/>
<path d="M169.171 142.473L167.097 142.847C167.025 142.433 166.866 142.119 166.62 141.909C166.374 141.698 166.052 141.594 165.659 141.594C165.134 141.594 164.717 141.777 164.403 142.139C164.09 142.501 163.935 143.109 163.935 143.956C163.935 144.903 164.094 145.567 164.411 145.961C164.729 146.35 165.154 146.545 165.687 146.545C166.088 146.545 166.414 146.43 166.668 146.203C166.922 145.976 167.101 145.583 167.208 145.03L169.278 145.384C169.063 146.334 168.65 147.05 168.042 147.535C167.435 148.02 166.616 148.263 165.591 148.263C164.427 148.263 163.502 147.897 162.806 147.161C162.115 146.426 161.77 145.408 161.77 144.108C161.77 142.791 162.115 141.769 162.81 141.038C163.506 140.306 164.443 139.94 165.627 139.94C166.596 139.94 167.367 140.151 167.939 140.568C168.511 140.986 168.92 141.618 169.171 142.473Z" fill="#004C9C"/>
<path d="M171.908 140.119H174.006V143.376C174.355 143.336 174.602 143.229 174.749 143.054C174.896 142.879 175.067 142.497 175.273 141.905C175.543 141.121 175.837 140.616 176.159 140.397C176.477 140.179 176.898 140.067 177.418 140.067C177.577 140.067 177.855 140.079 178.249 140.103L178.257 141.499C177.7 141.499 177.347 141.551 177.192 141.658C177.037 141.769 176.87 142.095 176.691 142.64C176.445 143.376 176.095 143.829 175.635 143.996C176.298 144.183 176.862 144.76 177.319 145.73C177.343 145.782 177.371 145.833 177.403 145.889L178.578 148.088H176.314L175.265 145.786C175.051 145.32 174.864 145.022 174.705 144.891C174.546 144.76 174.316 144.692 174.006 144.692V148.088H171.908V140.119V140.119Z" fill="#004C9C"/>
<path d="M180.838 140.119H182.86V145.122L186.098 140.119H188.168V148.084H186.145V142.994L182.864 148.088H180.842V140.119H180.838Z" fill="#004C9C"/>
<path d="M191.496 140.119H193.518V145.122L196.756 140.119H198.826V148.084H196.804V142.994L193.522 148.088H191.5V140.119H191.496ZM196.537 136.886H197.562C197.503 137.566 197.264 138.099 196.847 138.489C196.43 138.878 195.89 139.069 195.226 139.069C194.563 139.069 194.023 138.874 193.606 138.489C193.188 138.103 192.95 137.566 192.891 136.886H193.915C193.951 137.24 194.074 137.511 194.289 137.693C194.503 137.876 194.817 137.968 195.226 137.968C195.636 137.968 195.95 137.876 196.164 137.693C196.379 137.511 196.502 137.244 196.537 136.886Z" fill="#004C9C"/>
<path d="M103.6 160.029H110.667V167.994H108.562V161.731H105.705V167.994H103.6V160.029Z" fill="#004C9C"/>
<path d="M113.688 163.898C113.688 163.199 113.858 162.523 114.204 161.866C114.55 161.21 115.038 160.713 115.67 160.367C116.302 160.021 117.009 159.85 117.787 159.85C118.991 159.85 119.976 160.24 120.747 161.023C121.518 161.807 121.899 162.797 121.899 163.99C121.899 165.195 121.51 166.193 120.735 166.984C119.956 167.775 118.979 168.173 117.803 168.173C117.072 168.173 116.377 168.006 115.718 167.676C115.054 167.346 114.554 166.861 114.208 166.225C113.858 165.588 113.688 164.813 113.688 163.898ZM115.845 164.01C115.845 164.801 116.031 165.406 116.405 165.823C116.778 166.245 117.243 166.451 117.791 166.451C118.34 166.451 118.8 166.241 119.174 165.823C119.547 165.402 119.734 164.793 119.734 163.994C119.734 163.214 119.547 162.614 119.174 162.192C118.8 161.771 118.34 161.564 117.791 161.564C117.243 161.564 116.778 161.775 116.405 162.192C116.031 162.614 115.845 163.218 115.845 164.01Z" fill="#004C9C"/>
<path d="M124.958 160.029H132.01V167.994H129.912V161.739H127.044V165.318C127.044 166.229 126.941 166.865 126.73 167.235C126.52 167.601 126.289 167.843 126.035 167.958C125.781 168.074 125.371 168.129 124.807 168.129C124.474 168.129 124.029 168.086 123.48 167.994V166.443C123.524 166.443 123.643 166.447 123.834 166.459C124.053 166.475 124.223 166.483 124.343 166.483C124.629 166.483 124.803 166.388 124.867 166.201C124.931 166.014 124.966 165.493 124.966 164.638V160.029H124.958Z" fill="#004C9C"/>
<path d="M135.307 160.029H137.329V165.032L140.567 160.029H142.636V167.994H140.614V162.9L137.333 167.994H135.311V160.029H135.307Z" fill="#004C9C"/>
<path d="M145.072 160.029H152.275V161.731H149.728V167.994H147.623V161.731H145.076V160.029H145.072Z" fill="#004C9C"/>
<path d="M159.363 165.457L161.46 165.811C161.19 166.583 160.765 167.167 160.181 167.569C159.597 167.97 158.87 168.173 157.996 168.173C156.614 168.173 155.589 167.72 154.925 166.817C154.401 166.093 154.139 165.179 154.139 164.073C154.139 162.753 154.484 161.719 155.172 160.972C155.859 160.224 156.733 159.85 157.786 159.85C158.97 159.85 159.903 160.24 160.586 161.023C161.27 161.807 161.599 163.004 161.568 164.618H156.292C156.308 165.242 156.475 165.728 156.8 166.078C157.126 166.427 157.531 166.598 158.016 166.598C158.346 166.598 158.624 166.507 158.846 166.328C159.077 166.149 159.248 165.859 159.363 165.457ZM159.482 163.33C159.466 162.721 159.311 162.256 159.009 161.938C158.711 161.62 158.346 161.461 157.917 161.461C157.456 161.461 157.078 161.628 156.777 161.962C156.479 162.296 156.328 162.753 156.336 163.326H159.482V163.33Z" fill="#004C9C"/>
<path d="M163.295 167.994L166.163 163.89L163.414 160.029H165.984L167.395 162.22L168.877 160.029H171.348L168.65 163.803L171.594 167.994H169.008L167.391 165.525L165.758 167.994H163.295V167.994Z" fill="#004C9C"/>
<path d="M173.98 160.029H176.086V162.948H179.097V160.029H181.211V167.994H179.097V164.65H176.086V167.994H173.98V160.029Z" fill="#004C9C"/>
<path d="M184.504 160.029H186.526V165.032L189.764 160.029H191.834V167.994H189.811V162.9L186.53 167.994H184.508V160.029H184.504Z" fill="#004C9C"/>
<path d="M194.965 160.029H197.094V161.934C197.094 162.367 197.134 162.694 197.209 162.904C197.285 163.115 197.452 163.298 197.706 163.453C197.956 163.604 198.278 163.684 198.66 163.684C199.033 163.684 199.454 163.6 199.919 163.429V160.033H202.024V167.998H199.919V164.817C199.101 165.036 198.477 165.147 198.044 165.147C197.4 165.147 196.82 165.008 196.304 164.73C195.787 164.451 195.438 164.097 195.247 163.664C195.056 163.23 194.961 162.654 194.961 161.934V160.029H194.965Z" fill="#004C9C"/>
<path d="M209.951 165.457L212.048 165.811C211.778 166.583 211.353 167.167 210.769 167.569C210.185 167.97 209.458 168.173 208.584 168.173C207.202 168.173 206.177 167.72 205.513 166.817C204.989 166.093 204.727 165.179 204.727 164.073C204.727 162.753 205.072 161.719 205.759 160.972C206.447 160.224 207.321 159.85 208.374 159.85C209.557 159.85 210.491 160.24 211.174 161.023C211.858 161.807 212.187 163.004 212.156 164.618H206.88C206.896 165.242 207.063 165.728 207.388 166.078C207.714 166.427 208.119 166.598 208.604 166.598C208.934 166.598 209.212 166.507 209.434 166.328C209.669 166.149 209.835 165.859 209.951 165.457ZM210.074 163.33C210.058 162.721 209.903 162.256 209.601 161.938C209.303 161.62 208.938 161.461 208.509 161.461C208.048 161.461 207.67 161.628 207.368 161.962C207.07 162.296 206.919 162.753 206.927 163.326H210.074V163.33Z" fill="#004C9C"/>
<path d="M221.837 162.383L219.763 162.757C219.691 162.344 219.533 162.029 219.286 161.819C219.04 161.608 218.718 161.505 218.325 161.505C217.8 161.505 217.383 161.687 217.069 162.049C216.756 162.411 216.601 163.02 216.601 163.867C216.601 164.813 216.76 165.477 217.077 165.871C217.395 166.26 217.82 166.455 218.353 166.455C218.754 166.455 219.08 166.34 219.334 166.113C219.588 165.887 219.767 165.493 219.874 164.94L221.944 165.294C221.729 166.245 221.316 166.96 220.708 167.445C220.101 167.931 219.282 168.173 218.257 168.173C217.093 168.173 216.168 167.807 215.472 167.072C214.781 166.336 214.436 165.318 214.436 164.018C214.436 162.701 214.781 161.68 215.476 160.948C216.172 160.216 217.109 159.85 218.293 159.85C219.262 159.85 220.033 160.061 220.605 160.479C221.177 160.896 221.586 161.528 221.837 162.383Z" fill="#004C9C"/>
<path d="M224.574 160.029H226.672V163.286C227.021 163.246 227.268 163.139 227.415 162.964C227.562 162.789 227.733 162.407 227.939 161.815C228.209 161.031 228.503 160.526 228.825 160.308C229.143 160.089 229.564 159.978 230.084 159.978C230.243 159.978 230.521 159.989 230.915 160.013L230.923 161.409C230.366 161.409 230.013 161.461 229.858 161.568C229.703 161.679 229.536 162.006 229.357 162.55C229.111 163.286 228.761 163.739 228.301 163.906C228.964 164.093 229.528 164.67 229.985 165.64C230.009 165.692 230.037 165.743 230.068 165.799L231.244 167.998H228.98L227.931 165.696C227.717 165.23 227.53 164.932 227.371 164.801C227.212 164.67 226.982 164.602 226.672 164.602V167.998H224.574V160.029V160.029Z" fill="#004C9C"/>
<path d="M233.504 160.029H235.526V165.032L238.764 160.029H240.834V167.994H238.811V162.9L235.53 167.994H233.508V160.029H233.504Z" fill="#004C9C"/>
<path d="M244.162 160.029H246.184V165.032L249.422 160.029H251.492V167.994H249.47V162.9L246.188 167.994H244.166V160.029H244.162ZM249.203 156.796H250.228C250.169 157.476 249.93 158.009 249.513 158.399C249.096 158.789 248.556 158.979 247.892 158.979C247.229 158.979 246.689 158.785 246.272 158.399C245.854 158.013 245.616 157.476 245.557 156.796H246.581C246.617 157.15 246.74 157.421 246.955 157.604C247.169 157.787 247.483 157.878 247.892 157.878C248.302 157.878 248.615 157.787 248.83 157.604C249.045 157.421 249.168 157.15 249.203 156.796Z" fill="#004C9C"/>
<path d="M103.6 179.935H105.697V183.192C106.047 183.152 106.293 183.045 106.44 182.87C106.583 182.695 106.758 182.313 106.964 181.721C107.235 180.938 107.529 180.433 107.85 180.214C108.168 179.995 108.589 179.884 109.11 179.884C109.269 179.884 109.547 179.896 109.94 179.92L109.948 181.315C109.392 181.315 109.038 181.367 108.883 181.474C108.728 181.586 108.562 181.912 108.383 182.457C108.136 183.192 107.787 183.646 107.326 183.813C107.989 183.999 108.554 184.576 109.01 185.546C109.034 185.598 109.062 185.65 109.094 185.705L110.27 187.904H108.005L106.957 185.602C106.742 185.137 106.555 184.838 106.396 184.707C106.237 184.576 106.007 184.508 105.697 184.508V187.904H103.6V179.935V179.935Z" fill="#004C9C"/>
<path d="M112.098 183.805C112.098 183.105 112.268 182.429 112.614 181.773C112.96 181.117 113.448 180.619 114.08 180.274C114.712 179.928 115.419 179.757 116.197 179.757C117.401 179.757 118.386 180.146 119.157 180.93C119.928 181.713 120.309 182.703 120.309 183.896C120.309 185.101 119.92 186.099 119.145 186.89C118.367 187.682 117.389 188.079 116.213 188.079C115.482 188.079 114.787 187.912 114.128 187.582C113.464 187.252 112.964 186.767 112.618 186.131C112.272 185.499 112.098 184.719 112.098 183.805ZM114.255 183.92C114.255 184.711 114.442 185.316 114.815 185.733C115.188 186.155 115.653 186.362 116.201 186.362C116.75 186.362 117.211 186.151 117.584 185.733C117.957 185.312 118.144 184.703 118.144 183.904C118.144 183.125 117.957 182.524 117.584 182.103C117.211 181.681 116.75 181.474 116.201 181.474C115.653 181.474 115.188 181.685 114.815 182.103C114.442 182.524 114.255 183.129 114.255 183.92Z" fill="#004C9C"/>
<path d="M123.368 179.936H130.42V187.9H128.322V181.645H125.454V185.224C125.454 186.135 125.351 186.771 125.14 187.141C124.93 187.507 124.699 187.749 124.445 187.865C124.191 187.98 123.782 188.036 123.218 188.036C122.884 188.036 122.439 187.992 121.891 187.9V186.35C121.934 186.35 122.054 186.354 122.244 186.366C122.463 186.381 122.634 186.389 122.753 186.389C123.039 186.389 123.214 186.294 123.277 186.107C123.341 185.92 123.376 185.399 123.376 184.544V179.936H123.368Z" fill="#004C9C"/>
<path d="M134.341 179.936H141.393V187.9H139.295V181.645H136.427V185.224C136.427 186.135 136.324 186.771 136.113 187.141C135.902 187.507 135.672 187.749 135.418 187.865C135.163 187.98 134.754 188.036 134.19 188.036C133.856 188.036 133.412 187.992 132.863 187.9V186.35C132.907 186.35 133.026 186.354 133.217 186.366C133.435 186.381 133.606 186.389 133.725 186.389C134.011 186.389 134.186 186.294 134.25 186.107C134.313 185.92 134.349 185.399 134.349 184.544V179.936H134.341Z" fill="#004C9C"/>
<path d="M149.148 185.367L151.246 185.721C150.975 186.493 150.55 187.077 149.966 187.479C149.382 187.88 148.655 188.083 147.781 188.083C146.399 188.083 145.374 187.63 144.71 186.727C144.186 186.004 143.924 185.089 143.924 183.984C143.924 182.663 144.269 181.629 144.957 180.882C145.648 180.134 146.518 179.76 147.571 179.76C148.755 179.76 149.688 180.15 150.372 180.934C151.055 181.717 151.385 182.914 151.353 184.528H146.077C146.093 185.153 146.26 185.638 146.586 185.988C146.911 186.338 147.317 186.509 147.801 186.509C148.131 186.509 148.409 186.417 148.631 186.238C148.862 186.055 149.033 185.765 149.148 185.367ZM149.267 183.236C149.251 182.628 149.096 182.162 148.794 181.844C148.496 181.526 148.131 181.367 147.702 181.367C147.241 181.367 146.864 181.534 146.562 181.868C146.264 182.202 146.113 182.659 146.121 183.232H149.267V183.236Z" fill="#004C9C"/>
<path d="M160.875 187.9H154.853V190H153.145V186.175H154.007C154.368 185.773 154.662 185.149 154.897 184.302C155.131 183.455 155.27 181.995 155.318 179.936H161.738V186.175H162.592V190H160.875V187.9ZM159.652 186.175L159.66 181.669H157.113C157.03 183.868 156.68 185.371 156.064 186.175H159.652Z" fill="#004C9C"/>
<path d="M168.554 187.9V184.504C168.28 184.524 168.089 184.588 167.982 184.687C167.875 184.791 167.684 185.093 167.418 185.598L166.413 187.9H164.148L165.273 185.701C165.841 184.6 166.433 183.972 167.049 183.813C166.588 183.638 166.238 183.184 165.992 182.457C165.805 181.912 165.638 181.586 165.487 181.478C165.336 181.371 164.979 181.315 164.419 181.315V179.92C164.832 179.896 165.122 179.884 165.289 179.884C165.753 179.884 166.151 179.987 166.48 180.19C166.81 180.393 167.12 180.906 167.41 181.721C167.636 182.357 167.815 182.759 167.95 182.926C168.085 183.093 168.288 183.18 168.558 183.192V179.935H170.648V183.192C170.918 183.192 171.121 183.105 171.26 182.93C171.399 182.755 171.573 182.353 171.796 181.721C172.082 180.918 172.384 180.409 172.706 180.198C173.027 179.987 173.441 179.884 173.945 179.884C174.088 179.884 174.37 179.896 174.783 179.92V181.315C174.227 181.315 173.874 181.371 173.719 181.478C173.564 181.586 173.393 181.912 173.21 182.457C172.964 183.188 172.614 183.638 172.153 183.813C172.769 183.972 173.361 184.604 173.929 185.701L175.054 187.9H172.789L171.792 185.598C171.613 185.188 171.446 184.906 171.295 184.759C171.144 184.608 170.926 184.524 170.648 184.504V187.9H168.554V187.9Z" fill="#004C9C"/>
</svg>
